<?xml version="1.0" encoding="UTF-8" ?>
<!DOCTYPE svg PUBLIC "-//W3C//DTD SVG 1.1//EN" "http://www.w3.org/Graphics/SVG/1.1/DTD/svg11.dtd">
<svg width="21pt" height="20pt" viewBox="0 0 21 20" version="1.1" xmlns="http://www.w3.org/2000/svg">
<g id="#6d6d6dd4">
<path fill="#6d6d6d" opacity="0.83" d=" M 1.63 13.39 C 1.24 10.17 0.11 5.90 2.78 3.39 C 2.90 4.83 3.00 6.27 3.06 7.72 C 6.36 6.61 8.68 8.72 10.66 11.05 C 12.16 8.35 14.85 6.86 17.94 7.65 C 18.00 6.22 18.09 4.78 18.20 3.35 C 20.67 5.15 19.62 8.50 19.76 11.08 C 20.18 14.26 16.41 17.20 13.54 15.50 C 12.45 14.50 11.55 13.31 10.34 12.46 C 8.63 15.78 3.42 17.67 1.63 13.39 M 4.48 9.51 C 0.81 11.03 5.02 16.15 7.28 13.26 C 9.42 11.60 6.60 8.09 4.48 9.51 M 14.51 9.53 C 13.48 10.18 12.38 11.36 13.30 12.61 C 14.15 14.92 17.99 14.31 17.97 11.80 C 18.38 10.20 15.82 8.44 14.51 9.53 Z" />
</g>
</svg>
