<?xml version="1.0" encoding="UTF-8" ?>
<!DOCTYPE svg PUBLIC "-//W3C//DTD SVG 1.1//EN" "http://www.w3.org/Graphics/SVG/1.1/DTD/svg11.dtd">
<svg width="21pt" height="20pt" viewBox="0 0 21 20" version="1.1" xmlns="http://www.w3.org/2000/svg">
<g id="#737373e2">
<path fill="#737373" opacity="0.89" d=" M 0.46 9.99 C 2.38 5.31 7.67 1.17 12.92 2.81 C 16.55 3.83 18.92 6.95 20.82 10.00 C 18.77 13.31 16.06 16.72 11.99 17.43 C 6.97 18.28 2.29 14.42 0.46 9.99 M 2.18 10.01 C 4.09 12.71 6.57 15.46 10.08 15.83 C 13.93 15.89 16.79 12.93 18.82 9.99 C 16.92 7.31 14.47 4.57 11.00 4.19 C 7.12 4.04 4.22 7.07 2.18 10.01 Z" />
</g>
<g id="#6b6b6bd1">
<path fill="#6b6b6b" opacity="0.82" d=" M 8.37 7.21 C 10.99 5.17 15.44 8.39 13.60 11.42 C 12.61 14.09 8.60 13.93 7.37 11.54 C 6.44 10.09 7.31 8.32 8.37 7.21 M 9.15 8.50 C 9.16 9.50 9.16 10.49 9.16 11.48 C 9.83 11.49 11.18 11.50 11.86 11.51 C 11.86 10.51 11.85 9.51 11.83 8.51 C 11.16 8.51 9.82 8.50 9.15 8.50 Z" />
</g>
<g id="#0c0c0c18">
<path fill="#0c0c0c" opacity="0.09" d=" M 9.15 8.50 C 9.82 8.50 11.16 8.51 11.83 8.51 C 11.85 9.51 11.86 10.51 11.86 11.51 C 11.18 11.50 9.83 11.49 9.16 11.48 C 9.16 10.49 9.16 9.50 9.15 8.50 Z" />
</g>
</svg>
