<?xml version="1.0" encoding="UTF-8" ?>
<!DOCTYPE svg PUBLIC "-//W3C//DTD SVG 1.1//EN" "http://www.w3.org/Graphics/SVG/1.1/DTD/svg11.dtd">
<svg width="21pt" height="20pt" viewBox="0 0 21 20" version="1.1" xmlns="http://www.w3.org/2000/svg">
<g id="#737373e1">
<path fill="#737373" opacity="0.88" d=" M 5.53 2.48 C 9.74 -1.08 16.88 1.28 18.45 6.46 C 19.12 9.59 19.20 12.82 19.47 16.00 C 20.47 20.56 10.85 20.55 11.86 16.01 C 14.13 14.75 16.17 13.15 17.05 10.60 C 14.31 10.24 12.14 8.62 10.50 6.48 C 8.90 8.64 6.62 10.12 3.95 10.58 C 4.73 13.21 6.91 14.97 9.41 15.90 C 9.01 17.01 8.58 18.10 8.13 19.18 C 5.89 18.85 2.24 20.13 1.49 17.08 C 2.15 12.15 0.92 5.82 5.53 2.48 M 4.15 9.02 C 7.01 7.97 9.66 5.73 9.62 2.44 C 6.75 3.30 3.70 5.69 4.15 9.02 M 11.20 2.55 C 11.60 5.79 13.99 8.10 17.05 8.99 C 16.96 5.76 14.36 3.01 11.20 2.55 M 3.20 14.06 C 3.27 15.21 3.32 16.36 3.35 17.52 C 4.70 17.48 6.05 17.32 7.40 17.19 C 6.03 16.11 4.61 15.09 3.20 14.06 M 13.75 17.42 C 15.06 17.43 16.36 17.43 17.66 17.42 C 17.71 16.26 17.76 15.10 17.83 13.95 C 16.37 14.99 14.94 16.08 13.75 17.42 Z" />
</g>
</svg>
