<?xml version="1.0" encoding="UTF-8" ?>
<!DOCTYPE svg PUBLIC "-//W3C//DTD SVG 1.1//EN" "http://www.w3.org/Graphics/SVG/1.1/DTD/svg11.dtd">
<svg width="21pt" height="20pt" viewBox="0 0 21 20" version="1.1" xmlns="http://www.w3.org/2000/svg">
<g id="#838383ff">
<path fill="#838383" opacity="1.00" d=" M 10.37 0.00 L 13.49 0.00 C 18.31 0.83 21.71 6.17 20.14 10.86 C 19.46 13.26 17.36 14.76 15.55 16.30 C 15.50 17.53 15.44 18.77 15.40 20.00 L 13.91 20.00 C 13.90 18.39 13.89 16.79 13.90 15.18 C 15.89 13.84 18.23 12.45 18.64 9.86 C 20.11 5.07 14.74 0.25 10.12 1.98 C 5.53 3.19 5.87 8.80 3.24 11.94 C 6.17 12.47 5.41 15.49 5.57 17.68 C 7.24 17.70 8.95 17.83 10.36 18.84 C 8.36 19.14 6.13 20.17 4.28 18.81 C 3.95 17.30 3.88 15.76 3.75 14.23 C 2.56 13.89 1.38 13.56 0.18 13.24 C 2.24 10.67 3.78 7.76 4.86 4.66 C 5.66 2.15 8.17 1.00 10.37 0.00 Z" />
</g>
</svg>
