<?xml version="1.0" encoding="UTF-8" ?>
<!DOCTYPE svg PUBLIC "-//W3C//DTD SVG 1.1//EN" "http://www.w3.org/Graphics/SVG/1.1/DTD/svg11.dtd">
<svg width="21pt" height="20pt" viewBox="0 0 21 20" version="1.1" xmlns="http://www.w3.org/2000/svg">
<g id="#6b6b6bd2">
<path fill="#6b6b6b" opacity="0.82" d=" M 0.15 10.05 C 2.10 7.62 3.97 3.37 7.77 4.31 C 10.39 4.75 13.00 4.19 15.62 4.26 C 17.94 5.59 19.30 7.99 20.83 10.08 C 18.34 13.12 15.18 16.23 10.98 16.29 C 6.41 16.67 2.77 13.41 0.15 10.05 M 5.34 6.15 C 4.40 7.45 3.44 8.73 2.48 10.01 C 4.39 12.02 6.55 14.14 9.47 14.41 C 13.11 15.04 16.27 12.57 18.53 10.01 C 17.56 8.74 16.60 7.47 15.65 6.19 C 12.21 6.42 8.78 6.43 5.34 6.15 Z" />
</g>
<g id="#717171de">
<path fill="#717171" opacity="0.87" d=" M 4.88 9.03 C 8.64 8.97 12.41 8.97 16.18 9.04 C 16.16 9.52 16.13 10.49 16.11 10.97 C 12.35 11.03 8.59 11.04 4.83 10.96 C 4.85 10.48 4.87 9.51 4.88 9.03 Z" />
</g>
</svg>
