<?xml version="1.0" encoding="UTF-8" ?>
<!DOCTYPE svg PUBLIC "-//W3C//DTD SVG 1.1//EN" "http://www.w3.org/Graphics/SVG/1.1/DTD/svg11.dtd">
<svg width="21pt" height="20pt" viewBox="0 0 21 20" version="1.1" xmlns="http://www.w3.org/2000/svg">
<g id="#828282fe">
<path fill="#828282" opacity="1.00" d=" M 5.53 3.64 C 7.38 0.42 12.00 0.05 14.65 2.49 C 11.95 2.88 8.20 1.77 6.71 4.81 C 5.20 7.89 8.44 10.14 9.99 12.37 C 5.81 12.18 3.13 7.13 5.53 3.64 Z" />
<path fill="#828282" opacity="1.00" d=" M 11.05 10.67 C 9.13 7.92 12.50 5.67 14.14 3.84 C 15.58 5.38 18.08 6.55 18.03 8.97 C 18.17 12.48 12.48 13.96 11.05 10.67 M 13.35 7.18 C 11.75 7.49 11.66 10.32 13.33 10.60 C 14.84 10.35 14.89 7.40 13.35 7.18 Z" />
<path fill="#828282" opacity="1.00" d=" M 5.29 14.33 C 8.74 13.94 12.27 13.94 15.72 14.33 C 18.11 14.78 18.70 17.39 19.27 19.37 C 17.50 18.24 16.29 15.85 13.96 15.91 C 11.13 15.85 8.22 15.56 5.44 16.21 C 4.15 17.20 3.00 18.35 1.73 19.36 C 2.31 17.39 2.89 14.77 5.29 14.33 Z" />
</g>
<g id="#13131325">
<path fill="#131313" opacity="0.15" d=" M 13.35 7.18 C 14.89 7.40 14.84 10.35 13.33 10.60 C 11.66 10.32 11.75 7.49 13.35 7.18 Z" />
</g>
</svg>
